<mxfile host="app.diagrams.net" modified="2024-06-27T11:40:14.870Z" agent="Mozilla/5.0 (Windows NT 10.0; Win64; x64) AppleWebKit/537.36 (KHTML, like Gecko) Chrome/126.0.0.0 Safari/537.36 Edg/126.0.0.0" etag="AKJm_R2LMOEmUxomAfae" version="24.6.3" type="github">
  <diagram name="Page-1" id="e7e014a7-5840-1c2e-5031-d8a46d1fe8dd">
    <mxGraphModel dx="1512" dy="676" grid="1" gridSize="10" guides="1" tooltips="1" connect="1" arrows="1" fold="1" page="1" pageScale="1" pageWidth="1169" pageHeight="826" background="none" math="0" shadow="0">
      <root>
        <mxCell id="0" />
        <mxCell id="1" parent="0" />
        <mxCell id="2" value="Client" style="swimlane;whiteSpace=wrap" parent="1" vertex="1">
          <mxGeometry x="164.5" y="128" width="280" height="672" as="geometry" />
        </mxCell>
        <mxCell id="5" value="" style="ellipse;shape=startState;fillColor=#000000;strokeColor=#ff0000;" parent="2" vertex="1">
          <mxGeometry x="125" y="33" width="30" height="30" as="geometry" />
        </mxCell>
        <mxCell id="59_GWyZ8ASwaIHT2SDMB-48" value="" style="endArrow=classic;html=1;rounded=0;exitX=0.5;exitY=1;exitDx=0;exitDy=0;entryX=0.5;entryY=0;entryDx=0;entryDy=0;" edge="1" parent="2" source="5" target="59_GWyZ8ASwaIHT2SDMB-63">
          <mxGeometry width="50" height="50" relative="1" as="geometry">
            <mxPoint x="420.5" y="302" as="sourcePoint" />
            <mxPoint x="139.99999999999977" y="92" as="targetPoint" />
          </mxGeometry>
        </mxCell>
        <mxCell id="59_GWyZ8ASwaIHT2SDMB-63" value="Yêu cầu cử đồng cụ thể" style="rounded=0;whiteSpace=wrap;html=1;" vertex="1" parent="2">
          <mxGeometry x="80" y="102" width="120" height="60" as="geometry" />
        </mxCell>
        <mxCell id="59_GWyZ8ASwaIHT2SDMB-64" value="Nhập thông số điều khiển" style="rounded=0;whiteSpace=wrap;html=1;" vertex="1" parent="2">
          <mxGeometry x="80" y="194" width="120" height="60" as="geometry" />
        </mxCell>
        <mxCell id="59_GWyZ8ASwaIHT2SDMB-71" value="" style="endArrow=classic;html=1;rounded=0;exitX=0.5;exitY=1;exitDx=0;exitDy=0;entryX=0.5;entryY=0;entryDx=0;entryDy=0;" edge="1" parent="2" source="59_GWyZ8ASwaIHT2SDMB-63" target="59_GWyZ8ASwaIHT2SDMB-64">
          <mxGeometry width="50" height="50" relative="1" as="geometry">
            <mxPoint x="425.5" y="102" as="sourcePoint" />
            <mxPoint x="475.5" y="52" as="targetPoint" />
          </mxGeometry>
        </mxCell>
        <mxCell id="3" value="Server" style="swimlane;whiteSpace=wrap" parent="1" vertex="1">
          <mxGeometry x="444.5" y="128" width="280" height="672" as="geometry" />
        </mxCell>
        <mxCell id="59_GWyZ8ASwaIHT2SDMB-65" value="Nhận thông tin" style="rounded=0;whiteSpace=wrap;html=1;" vertex="1" parent="3">
          <mxGeometry x="80" y="194" width="120" height="60" as="geometry" />
        </mxCell>
        <mxCell id="59_GWyZ8ASwaIHT2SDMB-75" value="" style="edgeStyle=orthogonalEdgeStyle;rounded=0;orthogonalLoop=1;jettySize=auto;html=1;" edge="1" parent="3" source="59_GWyZ8ASwaIHT2SDMB-66" target="59_GWyZ8ASwaIHT2SDMB-67">
          <mxGeometry relative="1" as="geometry" />
        </mxCell>
        <mxCell id="59_GWyZ8ASwaIHT2SDMB-66" value="Gọi hàm xử lý tương ứng" style="rounded=0;whiteSpace=wrap;html=1;" vertex="1" parent="3">
          <mxGeometry x="80" y="292" width="120" height="60" as="geometry" />
        </mxCell>
        <mxCell id="59_GWyZ8ASwaIHT2SDMB-67" value="Xử lý dữ liệu rồi gửi thông báo tới cobot" style="rounded=0;whiteSpace=wrap;html=1;" vertex="1" parent="3">
          <mxGeometry x="80" y="392" width="120" height="60" as="geometry" />
        </mxCell>
        <mxCell id="59_GWyZ8ASwaIHT2SDMB-57" value="" style="ellipse;html=1;shape=endState;fillColor=#000000;strokeColor=#ff0000;" vertex="1" parent="3">
          <mxGeometry x="125" y="612" width="30" height="30" as="geometry" />
        </mxCell>
        <mxCell id="59_GWyZ8ASwaIHT2SDMB-82" value="" style="edgeStyle=orthogonalEdgeStyle;rounded=0;orthogonalLoop=1;jettySize=auto;html=1;" edge="1" parent="3" source="59_GWyZ8ASwaIHT2SDMB-70" target="59_GWyZ8ASwaIHT2SDMB-57">
          <mxGeometry relative="1" as="geometry" />
        </mxCell>
        <mxCell id="59_GWyZ8ASwaIHT2SDMB-70" value="Nhận thông báo" style="rounded=0;whiteSpace=wrap;html=1;" vertex="1" parent="3">
          <mxGeometry x="80" y="492" width="120" height="60" as="geometry" />
        </mxCell>
        <mxCell id="59_GWyZ8ASwaIHT2SDMB-73" value="" style="endArrow=classic;html=1;rounded=0;exitX=0.5;exitY=1;exitDx=0;exitDy=0;entryX=0.5;entryY=0;entryDx=0;entryDy=0;" edge="1" parent="3" source="59_GWyZ8ASwaIHT2SDMB-65" target="59_GWyZ8ASwaIHT2SDMB-66">
          <mxGeometry width="50" height="50" relative="1" as="geometry">
            <mxPoint x="145.5" y="102" as="sourcePoint" />
            <mxPoint x="195.5" y="52" as="targetPoint" />
          </mxGeometry>
        </mxCell>
        <mxCell id="4" value="Cobot" style="swimlane;whiteSpace=wrap" parent="1" vertex="1">
          <mxGeometry x="724.5" y="128" width="280" height="672" as="geometry" />
        </mxCell>
        <mxCell id="59_GWyZ8ASwaIHT2SDMB-80" value="" style="edgeStyle=orthogonalEdgeStyle;rounded=0;orthogonalLoop=1;jettySize=auto;html=1;" edge="1" parent="4" source="59_GWyZ8ASwaIHT2SDMB-68" target="59_GWyZ8ASwaIHT2SDMB-69">
          <mxGeometry relative="1" as="geometry" />
        </mxCell>
        <mxCell id="59_GWyZ8ASwaIHT2SDMB-68" value="Nhận thông báo từ server và thực hiện hành động với thông số nhận được" style="rounded=0;whiteSpace=wrap;html=1;" vertex="1" parent="4">
          <mxGeometry x="80" y="392" width="120" height="60" as="geometry" />
        </mxCell>
        <mxCell id="59_GWyZ8ASwaIHT2SDMB-69" value="Gửi lại thông báo cho server" style="rounded=0;whiteSpace=wrap;html=1;" vertex="1" parent="4">
          <mxGeometry x="80" y="492" width="120" height="60" as="geometry" />
        </mxCell>
        <mxCell id="59_GWyZ8ASwaIHT2SDMB-72" value="" style="endArrow=classic;html=1;rounded=0;exitX=1;exitY=0.5;exitDx=0;exitDy=0;entryX=0;entryY=0.5;entryDx=0;entryDy=0;" edge="1" parent="1" source="59_GWyZ8ASwaIHT2SDMB-64" target="59_GWyZ8ASwaIHT2SDMB-65">
          <mxGeometry width="50" height="50" relative="1" as="geometry">
            <mxPoint x="590" y="230" as="sourcePoint" />
            <mxPoint x="640" y="180" as="targetPoint" />
          </mxGeometry>
        </mxCell>
        <mxCell id="59_GWyZ8ASwaIHT2SDMB-79" style="edgeStyle=orthogonalEdgeStyle;rounded=0;orthogonalLoop=1;jettySize=auto;html=1;entryX=0;entryY=0.5;entryDx=0;entryDy=0;" edge="1" parent="1" source="59_GWyZ8ASwaIHT2SDMB-67" target="59_GWyZ8ASwaIHT2SDMB-68">
          <mxGeometry relative="1" as="geometry" />
        </mxCell>
        <mxCell id="59_GWyZ8ASwaIHT2SDMB-81" style="edgeStyle=orthogonalEdgeStyle;rounded=0;orthogonalLoop=1;jettySize=auto;html=1;entryX=1;entryY=0.5;entryDx=0;entryDy=0;" edge="1" parent="1" source="59_GWyZ8ASwaIHT2SDMB-69" target="59_GWyZ8ASwaIHT2SDMB-70">
          <mxGeometry relative="1" as="geometry" />
        </mxCell>
      </root>
    </mxGraphModel>
  </diagram>
</mxfile>
